<svg width="156" height="19" viewBox="0 0 156 19" fill="none" xmlns="http://www.w3.org/2000/svg">
<g clip-path="url(#clip0_14_29)">
<path d="M9.23553 1.2749C10.3867 1.61607 11.3663 2.13879 12.1744 2.84507C12.9824 3.55135 13.6049 4.43919 14.0398 5.50858C14.4748 6.57798 14.6922 7.8429 14.6922 9.29935C14.6922 10.7558 14.4748 12.0048 14.0398 13.0901C13.6049 14.1755 12.9924 15.0793 12.1983 15.7995C11.4062 16.5198 10.4466 17.0644 9.32331 17.4275C8.19805 17.7927 6.93712 17.9742 5.54053 17.9742H0.149658V0.762146H5.33902C6.78749 0.762146 8.08632 0.933728 9.23752 1.2749H9.23553ZM7.49776 14.8698C8.20404 14.6443 8.80457 14.2972 9.29937 13.8223C9.79416 13.3495 10.1732 12.737 10.4366 11.9848C10.7 11.2326 10.8316 10.3368 10.8316 9.29735C10.8316 8.25789 10.7 7.3481 10.4366 6.6099C10.1712 5.87369 9.79217 5.27715 9.29937 4.81827C8.80457 4.36138 8.20404 4.02819 7.49776 3.8187C6.79148 3.60921 5.99342 3.50546 5.10758 3.50546H3.93244V15.205H5.10758C5.99342 15.205 6.78948 15.0932 7.49776 14.8678V14.8698Z" fill="#285BA9" stroke="#285BA9" stroke-width="1.5" stroke-miterlimit="10"/>
<path d="M41.864 15.0912H49.5313V17.9762H38.0812V0.762146H41.864V15.0912Z" fill="#285BA9" stroke="#285BA9" stroke-width="1.5" stroke-miterlimit="10"/>
<path d="M61.9551 1.02949C62.8589 1.20706 63.6409 1.50633 64.3073 1.92531C64.9737 2.34429 65.4964 2.89894 65.8795 3.58926C66.2626 4.27958 66.4541 5.13549 66.4541 6.159C66.4541 7.18251 66.2626 7.98455 65.8795 8.70679C65.4964 9.42704 64.9757 10.0216 64.3213 10.4865C63.6649 10.9513 62.8948 11.2965 62.0069 11.5219C61.1211 11.7474 60.1654 11.8591 59.1439 11.8591H56.6121V17.9762H52.8293V0.762146H59.0402C60.0796 0.762146 61.0513 0.851927 61.9551 1.02949ZM62.7471 6.159C62.7471 5.15145 62.4099 4.45316 61.7376 4.0661C61.0632 3.67904 60.0716 3.48352 58.7588 3.48352H56.6121V9.13575H58.8865C61.4603 9.13575 62.7451 8.14416 62.7451 6.159H62.7471Z" fill="#285BA9" stroke="#285BA9" stroke-width="1.5" stroke-miterlimit="10"/>
<path d="M73.6625 7.53166H80.8191V0.762146H84.576V17.9762H80.8191V10.5323H73.6625V17.9762H69.8798V0.762146H73.6625V7.53166Z" fill="#285BA9" stroke="#285BA9" stroke-width="1.5" stroke-miterlimit="10"/>
<path d="M93.0114 17.9762H89.2286V0.762146H93.0114V17.9762Z" fill="#285BA9" stroke="#285BA9" stroke-width="1.5" stroke-miterlimit="10"/>
<path d="M107.019 9.92782L108.911 13.6488H109.038C108.937 12.7489 108.829 11.7653 108.719 10.694C108.607 9.62456 108.554 8.60105 108.554 7.62343V0.762146H112.133V17.9762H108.298L102.83 8.76465L100.912 5.06566H100.785C100.87 5.9954 100.968 6.981 101.078 8.02047C101.188 9.05993 101.243 10.0755 101.243 11.067V17.9762H97.6641V0.762146H101.523L107.019 9.92582V9.92782Z" fill="#285BA9" stroke="#285BA9" stroke-width="1.5" stroke-miterlimit="10"/>
<path d="M120.59 17.9762H116.807V0.762146H120.59V17.9762Z" fill="#285BA9" stroke="#285BA9" stroke-width="1.5" stroke-miterlimit="10"/>
<path d="M123.683 0.762146H138.15V3.62318H132.783V17.9762H129V3.62318H123.683V0.762146Z" fill="#285BA9" stroke="#285BA9" stroke-width="1.5" stroke-miterlimit="10"/>
<path d="M17.6271 7.89474L17.8844 7.67528C18.1478 7.52564 18.868 7.32812 19.1194 7.26228C19.1853 7.35805 19.305 7.5416 19.5145 7.87878C19.5304 7.92068 19.5484 7.96258 19.5703 8.00847C19.6082 8.08628 19.6282 8.17805 19.6521 8.27382C19.6641 8.3217 19.6741 8.36759 19.686 8.41348L19.8437 8.99207L19.9813 8.56511C20.125 8.12219 20.125 7.69323 19.9773 7.32613V7.29022L19.9514 7.26428C19.9135 7.17849 19.8736 7.10666 19.8297 7.04082C19.6182 6.72559 19.6641 6.51012 19.8417 6.17294C20.3744 5.15342 21.1166 4.46111 22.1141 4.0561C23.0459 3.67702 24.0095 3.71094 24.8295 3.79473C24.8834 3.80072 24.9353 3.8067 24.9891 3.81468L24.1272 4.36135L24.4504 4.49303C24.5043 4.51697 24.5522 4.53692 24.6021 4.55289C25.2126 4.74641 25.8051 4.67259 26.3638 4.33941C26.5374 4.23566 26.677 4.2197 26.8506 4.28554C27.4292 4.50301 27.9958 4.79031 28.5365 5.14145C28.6442 5.21128 28.8258 5.32899 29.0293 5.18335C29.2527 5.02374 29.1789 4.79031 29.143 4.67858C29.129 4.63269 29.1111 4.5868 29.0911 4.54091C29.0612 4.46909 29.0333 4.39926 29.0293 4.33941C28.9714 3.45157 28.5584 2.70539 27.7644 2.06096C26.8466 1.31677 25.7712 0.897789 24.5701 0.819978C24.3766 0.808007 24.227 0.744163 24.1013 0.622459C23.6165 0.153602 23.0259 -0.0499026 22.3356 0.0199273C22.2039 0.0318981 22.0822 0.0678106 21.9525 0.105718C21.8927 0.123675 21.8308 0.139636 21.767 0.157592L21.5116 0.221436L21.7151 0.391023C21.767 0.434916 21.8129 0.472824 21.8587 0.506741C21.9405 0.572581 22.0064 0.62246 22.0583 0.682314C22.168 0.802022 22.2139 0.937692 22.1919 1.06339C22.168 1.19307 22.0722 1.30679 21.9226 1.38061C21.7769 1.45443 21.5854 1.55219 21.4039 1.6719C19.8038 2.73332 18.9618 4.25162 18.9059 6.18291V6.21683C18.902 6.33055 18.896 6.37644 18.866 6.40238C18.2675 6.53406 17.8086 7.00092 17.7727 7.04282L17.3617 7.7092C17.3378 7.76905 17.3338 7.82691 17.3318 7.83888L17.3178 8.06433L17.5233 7.96856C17.5931 7.93664 17.6251 7.91071 17.635 7.90272L17.6271 7.89474Z" fill="#285BA9"/>
<path d="M35.8287 12.6611C35.7648 12.6791 35.707 12.6951 35.6531 12.713C35.5514 12.7429 35.4716 12.7669 35.3957 12.7769C35.2381 12.7988 35.0965 12.7589 35.0067 12.6671C34.9129 12.5733 34.875 12.4297 34.9009 12.2641C34.9249 12.1025 34.9528 11.889 34.9588 11.6715C35.0027 9.75022 34.2406 8.19202 32.6624 7.02287C32.5686 6.95503 32.5347 6.92311 32.5327 6.88321C32.7661 6.31659 32.6464 5.67415 32.6325 5.62028L32.3212 4.90203C32.2873 4.84816 32.2394 4.81026 32.2315 4.80427L32.0559 4.66461L32.018 4.88607C32.004 4.96388 32.006 5.00379 32.008 5.01576L32.014 5.08758C32.024 5.18335 32.0319 5.27912 32.0399 5.35294C32.012 5.6542 31.7626 6.35849 31.6728 6.60189C31.5252 6.60189 31.2678 6.58992 30.9406 6.57197C30.8967 6.55999 30.8508 6.55201 30.8029 6.54403C30.7171 6.53007 30.6313 6.49615 30.5396 6.45824C30.4937 6.44029 30.4478 6.42233 30.4039 6.40637L29.8393 6.20286L30.1126 6.56399C30.3939 6.93508 30.7451 7.17849 31.1301 7.27026L31.1601 7.29221L31.198 7.28423C31.2897 7.30219 31.3715 7.31017 31.4514 7.31216C31.8324 7.31815 31.9821 7.47975 32.1576 7.81693C32.6883 8.83645 32.832 9.842 32.5946 10.8914C32.3731 11.875 31.7925 12.6452 31.2558 13.2677C31.2199 13.3076 31.184 13.3475 31.1481 13.3874L31.194 12.3678L30.9027 12.5554C30.8528 12.5873 30.8069 12.6152 30.767 12.6472C30.2603 13.0362 29.9809 13.5649 29.933 14.2153C29.9191 14.4169 29.8512 14.5406 29.6996 14.6443C29.1929 14.9935 28.6322 15.2947 28.0337 15.5381C27.914 15.586 27.7145 15.6678 27.7184 15.9192C27.7224 16.1925 27.9559 16.2664 28.0676 16.3023C28.1135 16.3162 28.1614 16.3282 28.2112 16.3382C28.2871 16.3561 28.3589 16.3721 28.4128 16.404C28.8836 16.6893 29.3884 16.831 29.935 16.831C30.2742 16.831 30.6294 16.7771 31.0044 16.6694C32.1397 16.3422 33.0973 15.7017 33.8495 14.76C33.9712 14.6084 34.1069 14.5226 34.2785 14.4887C34.9389 14.359 35.4456 13.9879 35.7828 13.3854C35.8466 13.2696 35.8885 13.1479 35.9324 13.0183C35.9524 12.9604 35.9723 12.9005 35.9963 12.8407L36.0901 12.5953L35.8367 12.6651L35.8287 12.6611Z" fill="#285BA9"/>
<path d="M27.1838 18.3692L26.8665 18.2535C26.6072 18.0979 26.0825 17.5672 25.9009 17.3796C25.9528 17.2739 26.0525 17.0803 26.2461 16.7332C26.274 16.6993 26.3039 16.6614 26.3318 16.6215C26.3817 16.5496 26.4516 16.4858 26.5254 16.42C26.5613 16.388 26.5972 16.3561 26.6311 16.3222L27.0541 15.9032L26.6152 15.991C26.1583 16.0828 25.7852 16.2943 25.5378 16.6015L25.5078 16.6175L25.4959 16.6534C25.438 16.7312 25.3941 16.801 25.3602 16.8709C25.1906 17.21 24.9791 17.2759 24.5981 17.2878C23.4489 17.3257 22.4812 17.0165 21.6393 16.3461C20.8512 15.7197 20.4083 14.8637 20.0811 14.1076C20.0591 14.0577 20.0392 14.0078 20.0192 13.9579L20.917 14.4408L20.8751 14.0996C20.8691 14.0397 20.8632 13.9859 20.8512 13.934C20.7195 13.3075 20.3664 12.8267 19.7998 12.5035C19.6242 12.4037 19.5424 12.288 19.5144 12.1065C19.4207 11.4959 19.3927 10.8595 19.4326 10.2171C19.4406 10.0894 19.4546 9.8739 19.2272 9.76815C18.9798 9.65244 18.8122 9.83 18.7304 9.9158C18.6964 9.95171 18.6665 9.98962 18.6346 10.0295C18.5867 10.0914 18.5388 10.1492 18.4889 10.1811C17.7428 10.668 17.2979 11.3942 17.1243 12.4017C16.9248 13.5669 17.0884 14.7081 17.6091 15.7935C17.6929 15.9691 17.7108 16.1287 17.667 16.2982C17.4954 16.9507 17.6111 17.5672 18.0081 18.1338C18.0839 18.2415 18.1737 18.3313 18.2715 18.4251C18.3154 18.469 18.3613 18.5129 18.4071 18.5627L18.5887 18.7543L18.6366 18.4949C18.6486 18.4271 18.6585 18.3672 18.6665 18.3113C18.6825 18.2076 18.6964 18.1278 18.7204 18.054C18.7703 17.9003 18.866 17.7926 18.9877 17.7507C19.1134 17.7088 19.2591 17.7347 19.3967 17.8285C19.5324 17.9203 19.714 18.04 19.9055 18.1378C20.7494 18.5687 21.5994 18.7842 22.4493 18.7842C23.2992 18.7842 24.195 18.5567 25.0609 18.1019L25.0909 18.0859C25.1926 18.032 25.2345 18.0161 25.2724 18.03C25.6814 18.4869 26.3119 18.6585 26.3678 18.6685L27.1498 18.7004C27.2137 18.6924 27.2676 18.6665 27.2775 18.6625L27.479 18.5627L27.2955 18.433C27.2336 18.3892 27.1957 18.3732 27.1838 18.3692Z" fill="#285BA9"/>
<path d="M17.627 7.8948L17.8844 7.67534C18.1477 7.5257 18.868 7.32819 19.1194 7.26235C19.1852 7.35811 19.3049 7.54167 19.5144 7.87884C19.5304 7.92074 19.5483 7.96264 19.5703 8.00853C19.6082 8.08634 19.6281 8.17811 19.6521 8.27388C19.664 8.32176 19.674 8.36765 19.686 8.41354L19.8436 8.99213L19.9813 8.56517C20.1249 8.12225 20.1249 7.6933 19.9773 7.32619V7.29028L19.9513 7.26434C19.9134 7.17855 19.8735 7.10672 19.8296 7.04089C19.6181 6.72565 19.664 6.51018 19.8416 6.173C20.3743 5.15348 21.1165 4.46117 22.1141 4.05616C23.0458 3.67708 24.0094 3.711 24.8295 3.79479C24.8833 3.80078 24.9352 3.80676 24.9891 3.81474L24.1272 4.36141L24.4504 4.49309C24.5042 4.51703 24.5521 4.53698 24.602 4.55295C25.2125 4.74647 25.8051 4.67265 26.3637 4.33947C26.5373 4.23572 26.677 4.21976 26.8505 4.2856C27.4291 4.50307 27.9957 4.79037 28.5364 5.14151C28.6442 5.21134 28.8257 5.32906 29.0292 5.18341C29.2527 5.0238 29.1789 4.79037 29.1429 4.67864C29.129 4.63275 29.111 4.58686 29.0911 4.54098C29.0611 4.46915 29.0332 4.39932 29.0292 4.33947C28.9714 3.45163 28.5584 2.70545 27.7643 2.06102C26.8465 1.31683 25.7712 0.89785 24.5701 0.820039C24.3766 0.808069 24.2269 0.744224 24.1012 0.622521C23.6164 0.153663 23.0258 -0.0498416 22.3355 0.0199883C22.2038 0.0319591 22.0821 0.0678716 21.9525 0.105779C21.8926 0.123736 21.8308 0.139697 21.7669 0.157653L21.5115 0.221497L21.715 0.391084C21.7669 0.434977 21.8128 0.472885 21.8587 0.506802C21.9405 0.572642 22.0063 0.622521 22.0582 0.682375C22.1679 0.802083 22.2138 0.937753 22.1919 1.06345C22.1679 1.19313 22.0722 1.30685 21.9225 1.38067C21.7769 1.45449 21.5854 1.55226 21.4038 1.67196C19.8037 2.73338 18.9617 4.25168 18.9059 6.18298V6.21689C18.9019 6.33062 18.8959 6.3765 18.866 6.40244C18.2674 6.53412 17.8086 7.00098 17.7726 7.04288L17.3616 7.70926C17.3377 7.76911 17.3337 7.82697 17.3317 7.83894L17.3177 8.06439L17.5232 7.96863C17.5931 7.9367 17.625 7.91077 17.635 7.90279L17.627 7.8948Z" fill="#285BA9"/>
<path d="M35.8286 12.6612C35.7648 12.6791 35.7069 12.6951 35.6531 12.7131C35.5513 12.743 35.4715 12.7669 35.3957 12.7769C35.2381 12.7989 35.0964 12.759 35.0066 12.6672C34.9129 12.5734 34.8749 12.4298 34.9009 12.2642C34.9248 12.1026 34.9528 11.8891 34.9587 11.6716C35.0026 9.75028 34.2405 8.19208 32.6623 7.02293C32.5686 6.95509 32.5347 6.92317 32.5327 6.88327C32.7661 6.31665 32.6464 5.67421 32.6324 5.62035L32.3212 4.90209C32.2873 4.84823 32.2394 4.81032 32.2314 4.80433L32.0558 4.66467L32.0179 4.88613C32.0039 4.96394 32.0059 5.00385 32.0079 5.01582L32.0139 5.08764C32.0239 5.18341 32.0319 5.27918 32.0399 5.353C32.0119 5.65426 31.7625 6.35855 31.6728 6.60195C31.5251 6.60195 31.2677 6.58998 30.9405 6.57203C30.8966 6.56006 30.8508 6.55208 30.8029 6.54409C30.7171 6.53013 30.6313 6.49621 30.5395 6.4583C30.4936 6.44035 30.4477 6.42239 30.4038 6.40643L29.8392 6.20293L30.1125 6.56405C30.3939 6.93514 30.745 7.17855 31.1301 7.27033L31.16 7.29227L31.1979 7.28429C31.2897 7.30225 31.3715 7.31023 31.4513 7.31222C31.8324 7.31821 31.982 7.47982 32.1576 7.81699C32.6883 8.83651 32.8319 9.84206 32.5945 10.8915C32.373 11.8751 31.7925 12.6452 31.2558 13.2677C31.2199 13.3076 31.1839 13.3475 31.148 13.3874L31.1939 12.3679L30.9026 12.5555C30.8527 12.5874 30.8069 12.6153 30.767 12.6472C30.2602 13.0363 29.9809 13.565 29.933 14.2154C29.919 14.4169 29.8512 14.5406 29.6996 14.6444C29.1928 14.9935 28.6322 15.2948 28.0336 15.5382C27.9139 15.5861 27.7144 15.6679 27.7184 15.9193C27.7224 16.1926 27.9558 16.2664 28.0675 16.3023C28.1134 16.3163 28.1613 16.3283 28.2112 16.3382C28.287 16.3562 28.3588 16.3722 28.4127 16.4041C28.8835 16.6894 29.3883 16.831 29.935 16.831C30.2742 16.831 30.6293 16.7772 31.0044 16.6694C32.1396 16.3422 33.0973 15.7018 33.8494 14.7601C33.9712 14.6085 34.1068 14.5227 34.2784 14.4887C34.9388 14.3591 35.4456 13.988 35.7827 13.3854C35.8466 13.2697 35.8885 13.148 35.9324 13.0183C35.9523 12.9605 35.9723 12.9006 35.9962 12.8408L36.09 12.5954L35.8366 12.6652L35.8286 12.6612Z" fill="#285BA9"/>
<path d="M27.1837 18.3693L26.8665 18.2535C26.6071 18.0979 26.0824 17.5672 25.9008 17.3797C25.9527 17.2739 26.0525 17.0804 26.246 16.7333C26.2739 16.6993 26.3038 16.6614 26.3318 16.6215C26.3817 16.5497 26.4515 16.4859 26.5253 16.42C26.5612 16.3881 26.5971 16.3562 26.6311 16.3223L27.054 15.9033L26.6151 15.9911C26.1582 16.0828 25.7851 16.2943 25.5377 16.6016L25.5078 16.6175L25.4958 16.6534C25.438 16.7313 25.3941 16.8011 25.3601 16.8709C25.1906 17.2101 24.9791 17.2759 24.598 17.2879C23.4488 17.3258 22.4812 17.0166 21.6392 16.3462C20.8511 15.7197 20.4082 14.8638 20.081 14.1076C20.0591 14.0578 20.0391 14.0079 20.0192 13.958L20.917 14.4408L20.8751 14.0997C20.8691 14.0398 20.8631 13.9859 20.8511 13.9341C20.7195 13.3076 20.3663 12.8268 19.7997 12.5036C19.6241 12.4038 19.5423 12.2881 19.5144 12.1065C19.4206 11.496 19.3927 10.8596 19.4326 10.2171C19.4406 10.0894 19.4545 9.87396 19.2271 9.76822C18.9797 9.6525 18.8121 9.83007 18.7303 9.91586C18.6964 9.95177 18.6665 9.98968 18.6345 10.0296C18.5866 10.0914 18.5388 10.1493 18.4889 10.1812C17.7427 10.668 17.2978 11.3943 17.1242 12.4018C16.9247 13.567 17.0883 14.7082 17.609 15.7935C17.6928 15.9691 17.7108 16.1287 17.6669 16.2983C17.4953 16.9507 17.611 17.5672 18.0081 18.1338C18.0839 18.2416 18.1737 18.3314 18.2714 18.4251C18.3153 18.469 18.3612 18.5129 18.4071 18.5628L18.5886 18.7543L18.6365 18.495C18.6485 18.4271 18.6585 18.3673 18.6665 18.3114C18.6824 18.2077 18.6964 18.1279 18.7203 18.054C18.7702 17.9004 18.866 17.7927 18.9877 17.7508C19.1134 17.7089 19.259 17.7348 19.3967 17.8286C19.5323 17.9204 19.7139 18.0401 19.9054 18.1378C20.7494 18.5688 21.5993 18.7843 22.4492 18.7843C23.2992 18.7843 24.195 18.5568 25.0609 18.1019L25.0908 18.086C25.1926 18.0321 25.2345 18.0161 25.2724 18.0301C25.6814 18.487 26.3118 18.6586 26.3677 18.6685L27.1498 18.7005C27.2136 18.6925 27.2675 18.6665 27.2775 18.6625L27.479 18.5628L27.2954 18.4331C27.2336 18.3892 27.1957 18.3733 27.1837 18.3693Z" fill="#285BA9"/>
<path d="M25.7692 9.69836H25.6356V11.7973H25.7692V9.69836Z" fill="#285BA9"/>
<path d="M26.7528 10.68H24.6539V10.8137H26.7528V10.68Z" fill="#285BA9"/>
<path d="M144.332 0.750183L146.27 4.89808C146.549 5.54251 146.824 6.16898 147.096 6.77551C147.367 7.38203 147.65 8.01648 147.948 8.67688H148.051C148.349 8.01648 148.64 7.38203 148.929 6.77551C149.217 6.16898 149.502 5.54251 149.781 4.89808L151.718 0.750183H155.751L149.911 11.5579V17.8026H146.034V11.5579L140.22 0.750183H144.332Z" fill="#285BA9" stroke="#285BA9" stroke-width="1.5" stroke-miterlimit="10"/>
</g>
<defs>
<clipPath id="clip0_14_29">
<rect width="156" height="18.7862" fill="white"/>
</clipPath>
</defs>
</svg>
