<svg width="186" height="125" viewBox="0 0 186 125" fill="none" xmlns="http://www.w3.org/2000/svg">
<line y1="0.6" x2="30.0667" y2="0.6" stroke="#285BA9" stroke-width="0.8"/>
<line x1="0.4" y1="1" x2="0.399999" y2="17.4" stroke="#285BA9" stroke-width="0.8"/>
<line y1="-0.4" x2="30.0667" y2="-0.4" transform="matrix(-1 0 0 1 185.867 1)" stroke="#285BA9" stroke-width="0.8"/>
<line y1="-0.4" x2="16.4" y2="-0.4" transform="matrix(4.37114e-08 1 1 -4.37114e-08 185.867 1)" stroke="#285BA9" stroke-width="0.8"/>
<line y1="-0.4" x2="30.0667" y2="-0.4" transform="matrix(1 0 0 -1 0 124)" stroke="#285BA9" stroke-width="0.8"/>
<line y1="-0.4" x2="16.4" y2="-0.4" transform="matrix(-4.37114e-08 -1 -1 4.37114e-08 0 124)" stroke="#285BA9" stroke-width="0.8"/>
<line x1="185.867" y1="124.4" x2="155.8" y2="124.4" stroke="#285BA9" stroke-width="0.8"/>
<line x1="185.467" y1="124" x2="185.467" y2="107.6" stroke="#285BA9" stroke-width="0.8"/>
<g clip-path="url(#clip0_28_66)">
<path d="M97.3333 61.5555H92.4444V56.6666C92.4444 56.5487 92.3976 56.4357 92.3143 56.3523C92.2309 56.269 92.1179 56.2222 92 56.2222C91.8821 56.2222 91.7691 56.269 91.6857 56.3523C91.6024 56.4357 91.5555 56.5487 91.5555 56.6666V61.5555H86.6667C86.5488 61.5555 86.4357 61.6023 86.3524 61.6857C86.269 61.769 86.2222 61.8821 86.2222 61.9999C86.22 62.0577 86.2302 62.1153 86.2522 62.1688C86.2741 62.2222 86.3072 62.2704 86.3494 62.31C86.3915 62.3496 86.4416 62.3797 86.4963 62.3983C86.5511 62.4168 86.6091 62.4235 86.6667 62.4177H91.5555V67.3333C91.5555 67.4512 91.6024 67.5642 91.6857 67.6475C91.7691 67.7309 91.8821 67.7777 92 67.7777C92.1179 67.7777 92.2309 67.7309 92.3143 67.6475C92.3976 67.5642 92.4444 67.4512 92.4444 67.3333V62.4444H97.3333C97.4512 62.4444 97.5642 62.3976 97.6476 62.3142C97.7309 62.2309 97.7778 62.1178 97.7778 61.9999C97.7778 61.8821 97.7309 61.769 97.6476 61.6857C97.5642 61.6023 97.4512 61.5555 97.3333 61.5555Z" fill="#285BA9" fill-opacity="0.6"/>
</g>
<defs>
<clipPath id="clip0_28_66">
<rect width="16" height="16" fill="white" transform="translate(84 54)"/>
</clipPath>
</defs>
</svg>
