<svg width="156" height="19" viewBox="0 0 156 19" fill="none" xmlns="http://www.w3.org/2000/svg">
<g clip-path="url(#clip0_93_24)">
<path d="M9.2355 1.27489C10.3867 1.61606 11.3663 2.13879 12.1743 2.84507C12.9824 3.55135 13.6049 4.43919 14.0398 5.50858C14.4747 6.57798 14.6922 7.84289 14.6922 9.29935C14.6922 10.7558 14.4747 12.0048 14.0398 13.0901C13.6049 14.1755 12.9924 15.0793 12.1983 15.7995C11.4062 16.5198 10.4466 17.0644 9.32329 17.4275C8.19803 17.7927 6.9371 17.9742 5.5405 17.9742H0.149635V0.762142H5.33899C6.78747 0.762142 8.0863 0.933724 9.2375 1.27489H9.2355ZM7.49774 14.8698C8.20402 14.6443 8.80455 14.2972 9.29935 13.8223C9.79414 13.3495 10.1732 12.737 10.4366 11.9848C10.6999 11.2326 10.8316 10.3368 10.8316 9.29735C10.8316 8.25788 10.6999 7.3481 10.4366 6.6099C10.1712 5.87369 9.79215 5.27714 9.29935 4.81826C8.80455 4.36137 8.20402 4.02819 7.49774 3.8187C6.79146 3.60921 5.9934 3.50546 5.10756 3.50546H3.93242V15.205H5.10756C5.9934 15.205 6.78946 15.0932 7.49774 14.8678V14.8698Z" fill="#F8F8F8" stroke="#F8F8F8" stroke-width="1.5" stroke-miterlimit="10"/>
<path d="M41.864 15.0912H49.5313V17.9762H38.0812V0.762142H41.864V15.0912Z" fill="#F8F8F8" stroke="#F8F8F8" stroke-width="1.5" stroke-miterlimit="10"/>
<path d="M61.9551 1.02949C62.8589 1.20706 63.641 1.50633 64.3074 1.92531C64.9737 2.34429 65.4965 2.89894 65.8795 3.58926C66.2626 4.27957 66.4541 5.13549 66.4541 6.159C66.4541 7.1825 66.2626 7.98455 65.8795 8.70679C65.4965 9.42704 64.9757 10.0216 64.3213 10.4865C63.6649 10.9513 62.8948 11.2965 62.007 11.5219C61.1211 11.7474 60.1654 11.8591 59.1439 11.8591H56.6121V17.9762H52.8293V0.762142H59.0402C60.0797 0.762142 61.0513 0.851923 61.9551 1.02949ZM62.7472 6.159C62.7472 5.15145 62.41 4.45315 61.7376 4.06609C61.0633 3.67904 60.0717 3.48351 58.7589 3.48351H56.6121V9.13575H58.8866C61.4603 9.13575 62.7452 8.14416 62.7452 6.159H62.7472Z" fill="#F8F8F8" stroke="#F8F8F8" stroke-width="1.5" stroke-miterlimit="10"/>
<path d="M73.6626 7.53165H80.8191V0.762142H84.576V17.9762H80.8191V10.5323H73.6626V17.9762H69.8798V0.762142H73.6626V7.53165Z" fill="#F8F8F8" stroke="#F8F8F8" stroke-width="1.5" stroke-miterlimit="10"/>
<path d="M93.0114 17.9762H89.2286V0.762142H93.0114V17.9762Z" fill="#F8F8F8" stroke="#F8F8F8" stroke-width="1.5" stroke-miterlimit="10"/>
<path d="M107.019 9.92782L108.911 13.6488H109.038C108.937 12.7489 108.829 11.7653 108.719 10.6939C108.607 9.62455 108.554 8.60105 108.554 7.62343V0.762142H112.133V17.9762H108.298L102.83 8.76465L100.912 5.06566H100.785C100.87 5.99539 100.968 6.98099 101.078 8.02046C101.188 9.05993 101.243 10.0755 101.243 11.067V17.9762H97.6641V0.762142H101.523L107.019 9.92582V9.92782Z" fill="#F8F8F8" stroke="#F8F8F8" stroke-width="1.5" stroke-miterlimit="10"/>
<path d="M120.59 17.9762H116.807V0.762142H120.59V17.9762Z" fill="#F8F8F8" stroke="#F8F8F8" stroke-width="1.5" stroke-miterlimit="10"/>
<path d="M123.683 0.762142H138.149V3.62317H132.783V17.9762H129V3.62317H123.683V0.762142Z" fill="#F8F8F8" stroke="#F8F8F8" stroke-width="1.5" stroke-miterlimit="10"/>
<path d="M17.6271 7.89477L17.8844 7.6753C18.1478 7.52567 18.868 7.32815 19.1194 7.26231C19.1853 7.35807 19.305 7.54163 19.5145 7.87881C19.5304 7.9207 19.5484 7.9626 19.5703 8.00849C19.6082 8.0863 19.6282 8.17808 19.6521 8.27384C19.6641 8.32173 19.6741 8.36761 19.686 8.4135L19.8437 8.99209L19.9813 8.56513C20.125 8.12221 20.125 7.69326 19.9773 7.32615V7.29024L19.9514 7.2643C19.9135 7.17851 19.8736 7.10669 19.8297 7.04085C19.6182 6.72562 19.6641 6.51014 19.8417 6.17296C20.3744 5.15345 21.1166 4.46113 22.1141 4.05612C23.0459 3.67704 24.0095 3.71096 24.8295 3.79475C24.8834 3.80074 24.9353 3.80673 24.9891 3.81471L24.1272 4.36137L24.4504 4.49305C24.5043 4.517 24.5522 4.53695 24.6021 4.55291C25.2126 4.74644 25.8051 4.67262 26.3638 4.33943C26.5374 4.23568 26.677 4.21972 26.8506 4.28556C27.4292 4.50303 27.9958 4.79033 28.5365 5.14147C28.6442 5.2113 28.8258 5.32902 29.0293 5.18337C29.2527 5.02376 29.1789 4.79033 29.143 4.6786C29.129 4.63271 29.1111 4.58683 29.0911 4.54094C29.0612 4.46911 29.0333 4.39928 29.0293 4.33943C28.9714 3.45159 28.5584 2.70541 27.7644 2.06098C26.8466 1.31679 25.7712 0.897812 24.5701 0.820001C24.3766 0.80803 24.227 0.744186 24.1013 0.622482C23.6165 0.153625 23.0259 -0.0498797 22.3356 0.0199501C22.2039 0.031921 22.0822 0.0678335 21.9525 0.105741C21.8927 0.123697 21.8308 0.139659 21.767 0.157615L21.5116 0.221459L21.7151 0.391046C21.767 0.434939 21.8129 0.472847 21.8588 0.506764C21.9406 0.572604 22.0064 0.622482 22.0583 0.682337C22.168 0.802045 22.2139 0.937714 22.1919 1.06341C22.168 1.19309 22.0722 1.30682 21.9226 1.38064C21.777 1.45446 21.5854 1.55222 21.4039 1.67193C19.8038 2.73334 18.9618 4.25164 18.9059 6.18294V6.21685C18.902 6.33058 18.896 6.37647 18.866 6.4024C18.2675 6.53408 17.8086 7.00094 17.7727 7.04284L17.3617 7.70922C17.3378 7.76907 17.3338 7.82693 17.3318 7.8389L17.3178 8.06435L17.5233 7.96859C17.5931 7.93666 17.6251 7.91073 17.635 7.90275L17.6271 7.89477Z" fill="#F8F8F8"/>
<path d="M35.8287 12.6612C35.7649 12.6791 35.707 12.6951 35.6532 12.713C35.5514 12.743 35.4716 12.7669 35.3958 12.7769C35.2382 12.7988 35.0965 12.7589 35.0067 12.6671C34.913 12.5734 34.875 12.4297 34.901 12.2641C34.9249 12.1025 34.9529 11.889 34.9588 11.6716C35.0027 9.75025 34.2406 8.19204 32.6624 7.02289C32.5687 6.95506 32.5347 6.92313 32.5328 6.88323C32.7662 6.31661 32.6465 5.67418 32.6325 5.62031L32.3213 4.90206C32.2874 4.84819 32.2395 4.81028 32.2315 4.80429L32.0559 4.66463L32.018 4.8861C32.004 4.96391 32.006 5.00381 32.008 5.01578L32.014 5.0876C32.024 5.18337 32.032 5.27914 32.04 5.35296C32.012 5.65422 31.7626 6.35851 31.6728 6.60192C31.5252 6.60192 31.2678 6.58994 30.9406 6.57199C30.8967 6.56002 30.8509 6.55204 30.803 6.54406C30.7172 6.53009 30.6314 6.49617 30.5396 6.45827C30.4937 6.44031 30.4478 6.42235 30.4039 6.40639L29.8393 6.20289L30.1126 6.56401C30.394 6.9351 30.7451 7.17851 31.1302 7.27029L31.1601 7.29223L31.198 7.28425C31.2898 7.30221 31.3716 7.31019 31.4514 7.31219C31.8325 7.31817 31.9821 7.47978 32.1577 7.81696C32.6884 8.83647 32.832 9.84202 32.5946 10.8915C32.3731 11.8751 31.7926 12.6452 31.2559 13.2677C31.22 13.3076 31.184 13.3475 31.1481 13.3874L31.194 12.3679L30.9027 12.5554C30.8528 12.5873 30.807 12.6153 30.7671 12.6472C30.2603 13.0362 29.981 13.565 29.9331 14.2154C29.9191 14.4169 29.8513 14.5406 29.6997 14.6443C29.1929 14.9935 28.6323 15.2947 28.0337 15.5381C27.914 15.586 27.7145 15.6678 27.7185 15.9192C27.7225 16.1926 27.9559 16.2664 28.0676 16.3023C28.1135 16.3163 28.1614 16.3282 28.2113 16.3382C28.2871 16.3562 28.3589 16.3721 28.4128 16.404C28.8836 16.6893 29.3884 16.831 29.9351 16.831C30.2743 16.831 30.6294 16.7771 31.0045 16.6694C32.1397 16.3422 33.0974 15.7017 33.8495 14.76C33.9713 14.6084 34.1069 14.5226 34.2785 14.4887C34.9389 14.359 35.4457 13.9879 35.7828 13.3854C35.8467 13.2697 35.8886 13.148 35.9325 13.0183C35.9524 12.9604 35.9724 12.9006 35.9963 12.8407L36.0901 12.5953L35.8367 12.6651L35.8287 12.6612Z" fill="#F8F8F8"/>
<path d="M27.1838 18.3693L26.8666 18.2535C26.6072 18.0979 26.0825 17.5672 25.9009 17.3797C25.9528 17.2739 26.0525 17.0804 26.2461 16.7332C26.274 16.6993 26.3039 16.6614 26.3319 16.6215C26.3817 16.5497 26.4516 16.4858 26.5254 16.42C26.5613 16.3881 26.5972 16.3562 26.6311 16.3222L27.0541 15.9033L26.6152 15.991C26.1583 16.0828 25.7852 16.2943 25.5378 16.6016L25.5079 16.6175L25.4959 16.6534C25.438 16.7312 25.3941 16.8011 25.3602 16.8709C25.1906 17.2101 24.9792 17.2759 24.5981 17.2879C23.4489 17.3258 22.4812 17.0165 21.6393 16.3462C20.8512 15.7197 20.4083 14.8638 20.0811 14.1076C20.0591 14.0578 20.0392 14.0079 20.0192 13.958L20.917 14.4408L20.8751 14.0997C20.8692 14.0398 20.8632 13.9859 20.8512 13.9341C20.7195 13.3076 20.3664 12.8268 19.7998 12.5035C19.6242 12.4038 19.5424 12.2881 19.5145 12.1065C19.4207 11.496 19.3928 10.8595 19.4327 10.2171C19.4406 10.0894 19.4546 9.87395 19.2272 9.7682C18.9798 9.65249 18.8122 9.83005 18.7304 9.91585C18.6965 9.95176 18.6665 9.98967 18.6346 10.0296C18.5867 10.0914 18.5388 10.1493 18.489 10.1812C17.7428 10.668 17.2979 11.3942 17.1243 12.4018C16.9248 13.567 17.0884 14.7082 17.6091 15.7935C17.6929 15.9691 17.7109 16.1287 17.667 16.2983C17.4954 16.9507 17.6111 17.5672 18.0081 18.1338C18.0839 18.2416 18.1737 18.3313 18.2715 18.4251C18.3154 18.469 18.3613 18.5129 18.4072 18.5628L18.5887 18.7543L18.6366 18.4949C18.6486 18.4271 18.6585 18.3673 18.6665 18.3114C18.6825 18.2076 18.6965 18.1278 18.7204 18.054C18.7703 17.9004 18.866 17.7927 18.9877 17.7508C19.1134 17.7089 19.2591 17.7348 19.3968 17.8286C19.5324 17.9203 19.714 18.0401 19.9055 18.1378C20.7495 18.5688 21.5994 18.7842 22.4493 18.7842C23.2992 18.7842 24.1951 18.5568 25.061 18.1019L25.0909 18.0859C25.1926 18.0321 25.2345 18.0161 25.2724 18.0301C25.6814 18.487 26.3119 18.6585 26.3678 18.6685L27.1499 18.7004C27.2137 18.6925 27.2676 18.6665 27.2776 18.6625L27.4791 18.5628L27.2955 18.4331C27.2337 18.3892 27.1958 18.3732 27.1838 18.3693Z" fill="#F8F8F8"/>
<path d="M17.627 7.89479L17.8843 7.67532C18.1477 7.52569 18.8679 7.32817 19.1193 7.26233C19.1852 7.35809 19.3049 7.54165 19.5144 7.87883C19.5303 7.92072 19.5483 7.96262 19.5702 8.00851C19.6081 8.08632 19.6281 8.1781 19.652 8.27386C19.664 8.32175 19.674 8.36763 19.6859 8.41352L19.8436 8.99211L19.9812 8.56515C20.1249 8.12223 20.1249 7.69328 19.9772 7.32617V7.29026L19.9513 7.26432C19.9134 7.17853 19.8735 7.10671 19.8296 7.04087C19.6181 6.72563 19.664 6.51016 19.8416 6.17298C20.3743 5.15346 21.1165 4.46115 22.114 4.05614C23.0458 3.67706 24.0094 3.71098 24.8294 3.79477C24.8833 3.80076 24.9352 3.80674 24.989 3.81473L24.1271 4.36139L24.4503 4.49307C24.5042 4.51701 24.5521 4.53697 24.602 4.55293C25.2125 4.74646 25.805 4.67264 26.3637 4.33945C26.5373 4.2357 26.6769 4.21974 26.8505 4.28558C27.4291 4.50305 27.9957 4.79035 28.5364 5.14149C28.6441 5.21132 28.8257 5.32904 29.0292 5.18339C29.2526 5.02378 29.1788 4.79035 29.1429 4.67862C29.1289 4.63273 29.111 4.58684 29.091 4.54096C29.0611 4.46913 29.0332 4.3993 29.0292 4.33945C28.9713 3.45161 28.5583 2.70543 27.7643 2.061C26.8465 1.31681 25.7711 0.897831 24.5701 0.82002C24.3765 0.808049 24.2269 0.744205 24.1012 0.622501C23.6164 0.153644 23.0258 -0.0498607 22.3355 0.0199692C22.2038 0.0319401 22.0821 0.0678526 21.9524 0.10576C21.8926 0.123716 21.8307 0.139678 21.7669 0.157634L21.5115 0.221478L21.715 0.391065C21.7669 0.434958 21.8128 0.472866 21.8587 0.506783C21.9405 0.572623 22.0063 0.622501 22.0582 0.682356C22.1679 0.802064 22.2138 0.937734 22.1918 1.06343C22.1679 1.19311 22.0721 1.30683 21.9225 1.38065C21.7769 1.45447 21.5853 1.55224 21.4038 1.67195C19.8037 2.73336 18.9617 4.25166 18.9058 6.18296V6.21687C18.9019 6.3306 18.8959 6.37648 18.8659 6.40242C18.2674 6.5341 17.8085 7.00096 17.7726 7.04286L17.3616 7.70924C17.3377 7.76909 17.3337 7.82695 17.3317 7.83892L17.3177 8.06437L17.5232 7.96861C17.593 7.93668 17.625 7.91075 17.6349 7.90277L17.627 7.89479Z" fill="#F8F8F8"/>
<path d="M35.8286 12.6612C35.7648 12.6791 35.7069 12.6951 35.6531 12.713C35.5513 12.743 35.4715 12.7669 35.3957 12.7769C35.2381 12.7988 35.0964 12.7589 35.0066 12.6672C34.9129 12.5734 34.8749 12.4297 34.9009 12.2641C34.9248 12.1025 34.9528 11.8891 34.9587 11.6716C35.0026 9.75027 34.2405 8.19206 32.6623 7.02291C32.5686 6.95507 32.5347 6.92315 32.5327 6.88325C32.7661 6.31663 32.6464 5.67419 32.6324 5.62033L32.3212 4.90208C32.2873 4.84821 32.2394 4.8103 32.2314 4.80431L32.0558 4.66465L32.0179 4.88611C32.0039 4.96392 32.0059 5.00383 32.0079 5.0158L32.0139 5.08762C32.0239 5.18339 32.0319 5.27916 32.0399 5.35298C32.0119 5.65424 31.7625 6.35853 31.6728 6.60193C31.5251 6.60193 31.2677 6.58996 30.9405 6.57201C30.8966 6.56004 30.8508 6.55206 30.8029 6.54408C30.7171 6.53011 30.6313 6.49619 30.5395 6.45828C30.4936 6.44033 30.4477 6.42237 30.4038 6.40641L29.8392 6.20291L30.1125 6.56403C30.3939 6.93512 30.745 7.17853 31.1301 7.27031L31.16 7.29225L31.1979 7.28427C31.2897 7.30223 31.3715 7.31021 31.4513 7.3122C31.8324 7.31819 31.982 7.4798 32.1576 7.81697C32.6883 8.83649 32.8319 9.84204 32.5945 10.8915C32.373 11.8751 31.7925 12.6452 31.2558 13.2677C31.2199 13.3076 31.1839 13.3475 31.148 13.3874L31.1939 12.3679L30.9026 12.5554C30.8527 12.5874 30.8069 12.6153 30.767 12.6472C30.2602 13.0363 29.9809 13.565 29.933 14.2154C29.919 14.4169 29.8512 14.5406 29.6996 14.6443C29.1928 14.9935 28.6322 15.2948 28.0336 15.5382C27.9139 15.586 27.7144 15.6679 27.7184 15.9192C27.7224 16.1926 27.9558 16.2664 28.0675 16.3023C28.1134 16.3163 28.1613 16.3282 28.2112 16.3382C28.287 16.3562 28.3588 16.3721 28.4127 16.4041C28.8835 16.6894 29.3883 16.831 29.935 16.831C30.2742 16.831 30.6293 16.7771 31.0044 16.6694C32.1396 16.3422 33.0973 15.7018 33.8494 14.7601C33.9712 14.6084 34.1068 14.5226 34.2784 14.4887C34.9388 14.359 35.4456 13.9879 35.7827 13.3854C35.8466 13.2697 35.8885 13.148 35.9324 13.0183C35.9523 12.9604 35.9723 12.9006 35.9962 12.8407L36.09 12.5953L35.8366 12.6652L35.8286 12.6612Z" fill="#F8F8F8"/>
<path d="M27.1837 18.3693L26.8665 18.2536C26.6071 18.0979 26.0824 17.5672 25.9008 17.3797C25.9527 17.2739 26.0524 17.0804 26.246 16.7333C26.2739 16.6993 26.3038 16.6614 26.3318 16.6215C26.3816 16.5497 26.4515 16.4859 26.5253 16.42C26.5612 16.3881 26.5971 16.3562 26.631 16.3223L27.054 15.9033L26.6151 15.9911C26.1582 16.0828 25.7851 16.2943 25.5377 16.6016L25.5078 16.6175L25.4958 16.6535C25.4379 16.7313 25.394 16.8011 25.3601 16.8709C25.1905 17.2101 24.9791 17.2759 24.598 17.2879C23.4488 17.3258 22.4811 17.0166 21.6392 16.3462C20.8511 15.7197 20.4082 14.8638 20.081 14.1077C20.059 14.0578 20.0391 14.0079 20.0191 13.958L20.917 14.4408L20.8751 14.0997C20.8691 14.0398 20.8631 13.9859 20.8511 13.9341C20.7194 13.3076 20.3663 12.8268 19.7997 12.5036C19.6241 12.4038 19.5423 12.2881 19.5144 12.1065C19.4206 11.496 19.3927 10.8596 19.4326 10.2171C19.4405 10.0894 19.4545 9.87397 19.2271 9.76822C18.9797 9.65251 18.8121 9.83007 18.7303 9.91586C18.6964 9.95178 18.6664 9.98968 18.6345 10.0296C18.5866 10.0914 18.5387 10.1493 18.4889 10.1812C17.7427 10.668 17.2978 11.3943 17.1242 12.4018C16.9247 13.567 17.0883 14.7082 17.609 15.7935C17.6928 15.9691 17.7108 16.1287 17.6669 16.2983C17.4953 16.9507 17.611 17.5672 18.008 18.1338C18.0839 18.2416 18.1736 18.3314 18.2714 18.4251C18.3153 18.469 18.3612 18.5129 18.4071 18.5628L18.5886 18.7543L18.6365 18.495C18.6485 18.4271 18.6585 18.3673 18.6664 18.3114C18.6824 18.2077 18.6964 18.1279 18.7203 18.054C18.7702 17.9004 18.8659 17.7927 18.9877 17.7508C19.1133 17.7089 19.259 17.7348 19.3967 17.8286C19.5323 17.9204 19.7139 18.0401 19.9054 18.1378C20.7494 18.5688 21.5993 18.7843 22.4492 18.7843C23.2991 18.7843 24.195 18.5568 25.0609 18.1019L25.0908 18.086C25.1925 18.0321 25.2344 18.0161 25.2723 18.0301C25.6813 18.487 26.3118 18.6586 26.3677 18.6685L27.1498 18.7005C27.2136 18.6925 27.2675 18.6665 27.2775 18.6626L27.479 18.5628L27.2954 18.4331C27.2336 18.3892 27.1957 18.3733 27.1837 18.3693Z" fill="#F8F8F8"/>
<path d="M25.7692 9.69838H25.6356V11.7973H25.7692V9.69838Z" fill="#F8F8F8"/>
<path d="M26.7528 10.68H24.6539V10.8137H26.7528V10.68Z" fill="#F8F8F8"/>
<path d="M144.332 0.750172L146.27 4.89807C146.549 5.5425 146.824 6.16897 147.096 6.77549C147.367 7.38202 147.65 8.01647 147.948 8.67686H148.051C148.349 8.01647 148.64 7.38202 148.929 6.77549C149.217 6.16897 149.502 5.5425 149.781 4.89807L151.718 0.750172H155.751L149.911 11.5578V17.8026H146.034V11.5578L140.22 0.750172H144.332Z" fill="#F8F8F8" stroke="#F8F8F8" stroke-width="1.5" stroke-miterlimit="10"/>
</g>
<defs>
<clipPath id="clip0_93_24">
<rect width="156" height="18.7862" fill="white"/>
</clipPath>
</defs>
</svg>
